# xmcd
#
# Track frame offsets:
#	183
#	12458
#	23413
#	33985
#	51403
#	63315
#	73583
#	86483
#	98680
#	113233
#	123665
#	136433
#
# Disc length: 1988
#
# Revision: 3
# Processed by: cddbd v1.5.1PL0 Copyright (c) Steve Scherf et al.
# Submitted via: DiscPlay 4.0.4
# Normalized: r1:DSETVAR2,TDELIM( - ),TSWAP
#
DISCID=9f07c20c
DTITLE=Various Artist - Kenny Roggers and Dolly Parton - vol.1
DYEAR=1900
DGENRE=
TTITLE0=Kenny Rogers - Reuben James
TTITLE1=Dolly Parton - Honky Tonk Angels
TTITLE2=Kenny Rogers - She Even Woke Me Up To Say Goodbye
TTITLE3=Kenny Rogers - Something's Burning
TTITLE4=Dolly Parton - Makin' Belive
TTITLE5=Kenny Rogers - Trying Just As Hard
TTITLE6=Kenny Rogers - Sleep Comes Easy
TTITLE7=Dolly Parton - Two Little Orphans
TTITLE8=Kenny Rogers - Hear The Call
TTITLE9=Kenny Rogers - We All Have To Help Each Other
TTITLE10=Dolly Parton - Little Blossom
TTITLE11=Kenny Rogers - Run Through Your Mind
EXTD=
EXTT0=
EXTT1=
EXTT2=
EXTT3=
EXTT4=
EXTT5=
EXTT6=
EXTT7=
EXTT8=
EXTT9=
EXTT10=
EXTT11=
PLAYORDER=
